<svg width="155" height="135" viewBox="0 0 155 135" fill="none" xmlns="http://www.w3.org/2000/svg">
<path d="M73.3073 1.80365C79.7829 -0.402341 86.9428 4.8286 87.6051 11.4687C88.4955 17.2751 84.0215 23.0004 78.2818 23.812C72.8806 24.8965 67.0378 21.3773 65.5808 16.0283C63.7191 10.1923 67.3984 3.39728 73.3073 1.80365Z" fill="#FFDE59"/>
<path d="M78.9735 60.5613C82.7263 59.9416 86.4498 59.189 90.1585 58.3332C87.2592 71.0379 84.6616 83.9198 79.4591 95.9384C78.2302 98.4764 76.788 100.896 75.4634 103.39C73.5281 105.832 71.3794 108.105 69.0982 110.222C67.5971 111.439 66.0444 112.59 64.3593 113.535C60.0324 115.674 55.2494 116.53 50.4736 116.759C47.6111 116.641 44.7781 116.087 42.0407 115.261C37.6991 113.188 33.7255 110.104 31.2309 105.921C27.4928 99.9962 26.4773 92.7659 26.9924 85.8749C28.4641 78.829 31.2015 71.4216 37.5593 67.3785C41.5477 65.7849 45.9628 65.2241 50.0616 66.7883C49.3846 67.7695 48.7002 68.7508 48.0527 69.7542C46.0879 72.7791 45.043 76.3131 44.7192 79.8914C44.469 84.3846 44.5426 89.4975 47.7215 93.0389C50.1572 95.717 54.2044 95.4367 57.4496 94.8317C63.0568 93.6291 66.9348 88.9072 69.8635 84.2887C72.3213 80.2603 74.0506 75.8336 75.5002 71.3552C76.5746 67.7326 77.877 64.1839 78.9735 60.5613Z" fill="#FFDE59"/>
<path opacity="0.12" d="M85.6992 28.792C91.6449 23.1701 100.446 21.9601 108.202 23.5537C112.242 24.4981 115.575 27.346 118.07 30.5775C120.277 33.4475 120.476 37.2028 120.954 40.6557C120.299 40.2868 119.637 39.9253 118.982 39.5711C118.055 39.0694 117.12 38.5825 116.186 38.1029C116.098 35.2403 115.435 32.2301 113.323 30.1643C110.439 26.8738 105.509 26.4532 101.564 27.7591C98.4369 28.7109 95.8246 30.7103 93.1755 32.5474C88.2526 33.3442 83.6609 35.4174 79.5033 38.1251C79.5401 44.7209 79.4076 51.3094 79.5842 57.9052C79.4003 58.7906 79.2016 59.6833 78.9735 60.5613C77.877 64.1838 76.5746 67.7326 75.5002 71.3551C75.4708 64.8109 75.5002 58.2667 75.4561 51.7225C75.4708 47.1925 75.4413 42.6699 75.4928 38.1398C75.7872 39.3203 76.0815 40.4934 76.3759 41.6738C78.6055 36.8339 81.9758 32.5695 85.6992 28.792Z" fill="black"/>
<path d="M101.564 27.7591C105.509 26.4532 110.439 26.8738 113.323 30.1643C115.435 32.2301 116.098 35.2403 116.186 38.103C115.538 41.2976 114.059 44.4332 111.417 46.44C109.269 48.3287 106.428 48.978 103.728 49.6051C105.31 46.7646 107.525 43.8503 107.083 40.4049C106.936 38.553 105.884 36.347 103.809 36.1847C100.814 35.9634 98.1279 37.9923 96.612 40.4418C93.1829 45.8571 91.6891 52.1874 90.1585 58.3332C86.4498 59.189 82.7263 59.9416 78.9734 60.5613C79.2016 59.6833 79.4002 58.7906 79.5842 57.9053C83.1311 48.9928 86.0598 39.3793 93.1755 32.5474C95.8246 30.7103 98.4369 28.7109 101.564 27.7591Z" fill="#F9D957"/>
<path d="M42.4675 36.3175C50.0322 32.5253 59.0832 30.821 67.185 33.9271C66.3535 35.4764 65.4705 37.0922 65.5146 38.9145C65.5146 42.6404 63.8001 46.0268 63.1893 49.6494C62.6521 52.5932 61.9531 55.8247 59.4364 57.7503C57.5673 59.5505 54.8079 58.9013 52.5193 58.5914C46.9195 57.5659 41.0915 56.9093 35.4621 58.0602C33.2766 58.4439 31.6283 60.008 29.9726 61.3581C27.3971 63.5051 24.2403 64.9364 22.0254 67.5039C18.5889 71.2593 17.0657 76.2172 14.7919 80.6661C14.5785 79.4266 14.3577 78.1871 14.1443 76.9477C12.5622 67.5408 10.9728 58.1414 9.35388 48.7345C14.7036 48.705 20.0312 47.5467 24.8658 45.2374C30.9661 42.7363 36.404 38.9071 42.4675 36.3175Z" fill="#F8D443"/>
<path d="M79.5033 38.1251C83.6609 35.4174 88.2526 33.3442 93.1755 32.5474C86.0598 39.3794 83.1311 48.9928 79.5842 57.9053C79.4076 51.3094 79.5401 44.721 79.5033 38.1251Z" fill="#D9B93B"/>
<path d="M67.185 33.9271C70.1137 34.9969 72.8438 36.5093 75.4929 38.1398C75.4413 42.6699 75.4708 47.1925 75.4561 51.7226C71.269 58.9824 70.283 68.7508 62.6816 73.5538C57.5453 76.2615 52.4826 72.0118 48.0527 69.7542C48.7002 68.7508 49.3846 67.7695 50.0616 66.7883C45.9628 65.2241 41.5477 65.7849 37.5593 67.3785C32.5408 67.2604 28.1992 70.6469 25.2043 74.3949C21.2159 80.4374 18.9053 87.7046 19.3027 94.994C19.3689 104.15 23.5118 112.885 29.6709 119.503C26.9998 120.079 24.2771 120.308 21.5618 120.514C19.2806 107.234 17.0436 93.9463 14.7919 80.6661C17.0657 76.2172 18.5889 71.2593 22.0254 67.5039C24.2403 64.9364 27.3971 63.5051 29.9726 61.3581C31.6283 60.008 33.2766 58.4438 35.4621 58.0602C41.0915 56.9092 46.9195 57.5659 52.5193 58.5914C54.8079 58.9013 57.5673 59.5505 59.4364 57.7503C61.9531 55.8247 62.6521 52.5932 63.1893 49.6494C63.8001 46.0268 65.5146 42.6404 65.5146 38.9145C65.4705 37.0922 66.3535 35.4764 67.185 33.9271Z" fill="#ECC940"/>
<path d="M96.612 40.4418C98.1278 37.9923 100.814 35.9634 103.809 36.1847C105.884 36.347 106.936 38.553 107.083 40.4049C107.525 43.8503 105.31 46.7646 103.728 49.6051C106.428 48.978 109.269 48.3287 111.417 46.44C114.059 44.4332 115.538 41.2976 116.186 38.103C117.12 38.5825 118.055 39.0695 118.982 39.5712C118.474 42.3895 117.945 45.2964 116.348 47.7311C113.515 52.6448 108.423 55.5074 104.773 59.7128C98.562 66.0505 96.7886 75.1179 94.5369 83.3811C92.3146 93.1052 88.0024 102.165 83.3886 110.945C82.0714 111.528 80.7984 112.192 79.5106 112.834C79.5327 107.204 79.5033 101.568 79.4591 95.9383C84.6616 83.9197 87.2592 71.0379 90.1585 58.3332C91.6891 52.1874 93.1829 45.8571 96.612 40.4418Z" fill="#D3B439"/>
<path d="M118.982 39.5712C119.637 39.9253 120.299 40.2868 120.954 40.6557C123.78 42.3231 126.701 43.8135 129.711 45.1194C128.438 48.3066 127.297 51.6119 125.266 54.4081C120.895 60.6277 113.132 63.424 109.107 69.9534C105.038 76.0697 104.633 83.6763 101.461 90.1984C98.9152 96.5876 96.8842 103.191 93.5729 109.256C91.564 109.226 89.533 109.204 87.5756 109.676C86.1407 109.964 84.7426 110.406 83.3886 110.945C88.0024 102.165 92.3146 93.1053 94.5369 83.3812C96.7886 75.1179 98.562 66.0505 104.773 59.7129C108.423 55.5075 113.515 52.6448 116.348 47.7311C117.945 45.2964 118.474 42.3895 118.982 39.5712Z" fill="#EDCA40"/>
<path d="M125.266 54.4082C127.297 51.6119 128.438 48.3066 129.711 45.1194C130.859 45.6285 132.021 46.1302 133.199 46.5876C137.15 48.1001 141.389 48.6829 145.605 48.7419C141.507 72.6537 137.474 96.5729 133.405 120.485C126.48 120.263 119.659 118.441 113.375 115.571C106.995 112.863 100.527 110.06 93.5729 109.256C96.8842 103.191 98.9152 96.5877 101.461 90.1984C104.633 83.6763 105.038 76.0697 109.107 69.9534C113.132 63.424 120.895 60.6277 125.266 54.4082Z" fill="#FFDA45"/>
<path d="M148.372 57.7504C150.285 57.9053 152.213 58.0307 154.141 58.0307C153.98 59.5063 153.818 60.9893 153.545 62.4575C149.226 85.2257 144.958 108.009 140.646 130.792C129.726 131.131 119.534 126.557 109.534 122.787C102.771 120.61 95.5965 118.685 88.466 119.983C89.4521 117.644 90.7398 115.446 92.2115 113.38C101.476 114.206 109.497 119.289 118.217 122.034C124.214 124.306 130.675 124.985 137.055 124.675C140.83 102.372 144.597 80.0612 148.372 57.7504Z" fill="#FFDA45"/>
<path d="M62.6815 73.5538C70.2829 68.7508 71.269 58.9825 75.456 51.7226C75.5002 58.2668 75.4707 64.811 75.5002 71.3552C74.0505 75.8336 72.3213 80.2603 69.8635 84.2887C66.3682 85.0855 62.9611 86.7086 59.3113 86.5463C53.7997 86.0963 49.517 82.2229 44.7192 79.8914C45.043 76.3131 46.0879 72.7791 48.0527 69.7542C52.4825 72.0118 57.5452 76.2615 62.6815 73.5538Z" fill="#D5B63A"/>
<path d="M0.722229 58.0085C2.69433 58.0381 4.65907 57.9052 6.62382 57.7577C8.11025 66.8325 9.68499 75.8926 11.2009 84.96C13.4305 98.2034 15.6896 111.439 17.9266 124.683C21.7016 124.712 25.5133 124.852 29.2367 124.048C30.3847 125.192 31.5326 126.328 32.6806 127.472C32.1728 127.626 31.1647 127.944 30.6569 128.106C25.4029 129.847 19.884 130.991 14.3209 130.792C9.83952 106.518 4.98285 82.3188 0.722229 58.0085Z" fill="#FBD744"/>
<path d="M25.2042 74.3949C28.1992 70.6469 32.5407 67.2604 37.5593 67.3785C31.2015 71.4216 28.4641 78.829 26.9924 85.8749C26.3669 86.9373 25.5795 87.9481 25.2999 89.1728C24.3433 95.385 24.954 101.988 28.0446 107.551C29.9211 111.498 33.2251 114.442 35.9404 117.777C34.0051 118.367 32.0551 118.921 30.0903 119.408L29.6709 119.503C23.5118 112.885 19.3689 104.15 19.3026 94.994C18.9053 87.7046 21.2159 80.4374 25.2042 74.3949Z" fill="#DABA3B"/>
<path d="M65.0804 119.776C67.0598 118.264 69.054 116.759 71.0335 115.246C71.8135 115.674 72.5788 116.132 73.3441 116.582C73.9696 116.951 74.595 117.327 75.2205 117.703C75.2058 119.526 75.1985 121.355 75.1985 123.185C73.8813 122.595 72.5641 121.982 71.2248 121.451C69.2306 120.706 67.1702 120.153 65.0804 119.776Z" fill="#DABA3B"/>
<path opacity="0.05" d="M11.2009 84.96C12.1501 82.2745 13.0037 79.5594 14.1443 76.9476C14.3577 78.1871 14.5785 79.4266 14.7919 80.6661C17.0436 93.9463 19.2806 107.234 21.5618 120.514C24.2771 120.308 26.9997 120.079 29.6709 119.503L30.0903 119.407C31.4149 120.581 32.7394 121.754 34.064 122.927C32.4745 123.377 30.8556 123.724 29.2367 124.048C25.5133 124.852 21.7016 124.712 17.9266 124.683C15.6896 111.439 13.4305 98.2034 11.2009 84.96Z" fill="black"/>
<path d="M44.7192 79.8914C49.517 82.2228 53.7997 86.0962 59.3113 86.5463C62.9611 86.7086 66.3682 85.0855 69.8635 84.2887C66.9348 88.9072 63.0568 93.6291 57.4496 94.8317C54.2044 95.4367 50.1572 95.717 47.7215 93.0388C44.5426 89.4974 44.469 84.3846 44.7192 79.8914Z" fill="#BA9F33"/>
<path d="M25.2999 89.1728C25.5795 87.9481 26.3669 86.9373 26.9924 85.8749C26.4773 92.7658 27.4928 99.9962 31.2309 105.921C33.7255 110.104 37.6991 113.188 42.0407 115.261C40.7382 115.859 39.4358 116.464 38.1112 117.01C37.3901 117.275 36.6689 117.541 35.9404 117.777C33.2251 114.442 29.9211 111.498 28.0447 107.551C24.9541 101.988 24.3433 95.385 25.2999 89.1728Z" fill="#C8AB36"/>
<path opacity="0.21" d="M79.4591 95.9384C79.5033 101.568 79.5327 107.204 79.5106 112.834C79.0838 112.391 78.6571 111.948 78.2376 111.513C76.5966 113.195 74.963 114.885 73.3441 116.582C72.5789 116.132 71.8136 115.674 71.0335 115.246C68.9511 114.228 66.6626 113.66 64.3593 113.535C66.0444 112.59 67.5971 111.439 69.0982 110.222C71.35 110.746 73.4324 111.771 75.4855 112.812C75.4929 109.669 75.4266 106.526 75.4634 103.39C76.788 100.896 78.2302 98.4764 79.4591 95.9384Z" fill="black"/>
<path d="M69.0983 110.222C71.3794 108.105 73.5281 105.832 75.4634 103.39C75.4266 106.526 75.4928 109.669 75.4855 112.812C73.4324 111.771 71.35 110.746 69.0983 110.222Z" fill="#C4A835"/>
<path opacity="0.08" d="M83.3886 110.945C84.7426 110.406 86.1407 109.964 87.5756 109.676C88.5617 109.683 89.5551 109.728 90.5412 109.801C89.8053 111.122 89.0547 112.443 88.3115 113.763C85.1841 114.317 82.4835 116.051 79.7976 117.629C79.7682 119.481 79.7535 121.341 79.7388 123.2C80.0625 123.045 80.7248 122.75 81.0559 122.595C79.1721 125.819 75.5591 127.346 72.52 129.228C59.7675 136.546 42.9385 136.332 30.657 128.106C31.1647 127.944 32.1729 127.626 32.6806 127.472C35.2046 126.69 37.6918 125.797 40.1496 124.808C50.0616 129.633 62.4166 127.826 71.2249 121.451C72.5641 121.982 73.8813 122.595 75.1985 123.185C75.1985 121.355 75.2059 119.526 75.2206 117.703C74.5951 117.327 73.9696 116.951 73.3441 116.582C74.963 114.885 76.5966 113.195 78.2376 111.513C78.657 111.948 79.0838 112.391 79.5106 112.834C80.7984 112.192 82.0714 111.528 83.3886 110.945Z" fill="black"/>
<path d="M50.4736 116.759C55.2494 116.53 60.0324 115.674 64.3593 113.535C66.6625 113.66 68.9511 114.228 71.0335 115.246C69.0541 116.759 67.0599 118.264 65.0804 119.776C59.6498 119.105 54.2118 120.204 49.0019 121.68C47.1034 120.986 45.1975 120.3 43.299 119.614C45.6685 118.603 47.9864 117.467 50.4736 116.759Z" fill="#C1A534"/>
<path d="M79.7976 117.629C82.4835 116.051 85.1841 114.317 88.3115 113.763C89.5993 113.535 90.9091 113.476 92.2116 113.38C90.7398 115.446 89.4521 117.644 88.466 119.983C85.9421 120.691 83.4107 121.429 81.0559 122.595C80.7248 122.75 80.0625 123.045 79.7388 123.2C79.7535 121.341 79.7682 119.481 79.7976 117.629Z" fill="#F2CF41"/>
<path opacity="0.24" d="M38.1112 117.01C39.4358 116.464 40.7382 115.859 42.0407 115.261C44.7781 116.087 47.6111 116.641 50.4736 116.759C47.9864 117.467 45.6685 118.603 43.299 119.614C43.0194 119.725 42.4601 119.961 42.1731 120.071C40.8192 119.053 39.4652 118.028 38.1112 117.01Z" fill="black"/>
<path opacity="0.15" d="M35.9404 117.777C36.6689 117.541 37.3901 117.275 38.1112 117.01C39.4652 118.028 40.8192 119.053 42.1731 120.072C40.6941 120.654 39.1929 121.186 37.6918 121.709C36.485 122.13 35.2781 122.551 34.064 122.927C32.7394 121.754 31.4149 120.581 30.0903 119.408C32.0551 118.921 34.0051 118.367 35.9404 117.777Z" fill="black"/>
<path opacity="0.16" d="M49.0019 121.68C54.2118 120.204 59.6498 119.105 65.0804 119.776C67.1703 120.153 69.2307 120.706 71.2248 121.451C62.4166 127.826 50.0615 129.633 40.1495 124.808L41.1871 124.395C43.7479 123.355 46.3381 122.388 49.0019 121.68Z" fill="black"/>
<path d="M37.6918 121.709C39.1929 121.186 40.6941 120.654 42.1732 120.072C42.4601 119.961 43.0194 119.725 43.299 119.614C45.1975 120.3 47.1034 120.986 49.0019 121.68C46.3381 122.388 43.7479 123.355 41.1871 124.395C40.0244 123.495 38.8618 122.602 37.6918 121.709Z" fill="#D2B439"/>
<path d="M34.064 122.927C35.2782 122.55 36.485 122.13 37.6918 121.709C38.8618 122.602 40.0244 123.495 41.1871 124.395L40.1495 124.808C37.6918 125.797 35.2046 126.69 32.6806 127.472C31.5326 126.328 30.3847 125.192 29.2368 124.048C30.8556 123.724 32.4745 123.377 34.064 122.927Z" fill="#E6C53E"/>
</svg>
